P2
9 9
255
0 32 64 96 128 160 192 224 0 
32 64 96 128 160 192 224 0 32 
64 96 128 160 192 224 0 32 64 
96 128 160 192 224 0 32 64 96 
128 160 192 224 0 32 64 96 128 
160 192 224 0 32 64 96 128 160 
192 224 0 32 64 96 128 160 192 
224 0 32 64 96 128 160 192 224 
0 32 64 96 128 160 192 224 0 
